<svg width="81" height="80" viewBox="0 0 81 80" fill="none" xmlns="http://www.w3.org/2000/svg">
<path fill-rule="evenodd" clip-rule="evenodd" d="M40.5 76.6668C50.2246 76.6668 59.5509 72.8037 66.4273 65.9274C73.3036 59.0511 77.1667 49.7248 77.1667 40.0002C77.1667 30.2756 73.3036 20.9492 66.4273 14.0729C59.5509 7.19658 50.2246 3.3335 40.5 3.3335C30.7754 3.3335 21.4491 7.19658 14.5728 14.0729C7.69643 20.9492 3.83334 30.2756 3.83334 40.0002C3.83334 49.7248 7.69643 59.0511 14.5728 65.9274C21.4491 72.8037 30.7754 76.6668 40.5 76.6668ZM40.5 20.0002C41.3841 20.0002 42.2319 20.3514 42.857 20.9765C43.4822 21.6016 43.8333 22.4494 43.8333 23.3335V36.6668H57.1667C58.0507 36.6668 58.8986 37.018 59.5237 37.6431C60.1488 38.2683 60.5 39.1161 60.5 40.0002C60.5 40.8842 60.1488 41.7321 59.5237 42.3572C58.8986 42.9823 58.0507 43.3335 57.1667 43.3335H43.8333V56.6668C43.8333 57.5509 43.4822 58.3987 42.857 59.0239C42.2319 59.649 41.3841 60.0002 40.5 60.0002C39.616 60.0002 38.7681 59.649 38.143 59.0239C37.5179 58.3987 37.1667 57.5509 37.1667 56.6668V43.3335H23.8333C22.9493 43.3335 22.1014 42.9823 21.4763 42.3572C20.8512 41.7321 20.5 40.8842 20.5 40.0002C20.5 39.1161 20.8512 38.2683 21.4763 37.6431C22.1014 37.018 22.9493 36.6668 23.8333 36.6668H37.1667V23.3335C37.1667 22.4494 37.5179 21.6016 38.143 20.9765C38.7681 20.3514 39.616 20.0002 40.5 20.0002Z" fill="#ABABAB"/>
</svg>
