<svg width="81" height="80" viewBox="0 0 81 80" fill="none" xmlns="http://www.w3.org/2000/svg">
<path fill-rule="evenodd" clip-rule="evenodd" d="M17.1667 6.66681C14.5145 6.66681 11.971 7.72038 10.0956 9.59574C8.22023 11.4711 7.16666 14.0146 7.16666 16.6668V63.3335C7.16666 65.9856 8.22023 68.5292 10.0956 70.4045C11.971 72.2799 14.5145 73.3335 17.1667 73.3335H63.8333C66.4855 73.3335 69.029 72.2799 70.9044 70.4045C72.7798 68.5292 73.8333 65.9856 73.8333 63.3335V16.6668C73.8333 14.0146 72.7798 11.4711 70.9044 9.59574C69.029 7.72038 66.4855 6.66681 63.8333 6.66681H17.1667ZM24.4333 52.9001C22.4656 52.9316 20.5352 52.3618 18.9 51.2668C17.2583 50.1465 15.9646 48.5872 15.1667 46.7668C14.2437 44.6325 13.789 42.3251 13.8333 40.0001C13.8333 37.5001 14.3 35.2668 15.2333 33.3335C16.2 31.3668 17.5667 29.8668 19.3667 28.7668C21.3376 27.6212 23.5876 27.0443 25.8667 27.1001C28 27.1001 29.9 27.5668 31.6 28.4335C33.2667 29.3668 34.5667 30.6668 35.4333 32.3001L31.3667 35.2335C30.8861 34.1955 30.1126 33.3207 29.1413 32.7167C28.1701 32.1126 27.0434 31.8056 25.9 31.8335C23.7 31.8335 22 32.5668 20.8333 34.0001C19.5566 35.7299 18.931 37.8545 19.0667 40.0001C19.0667 42.6001 19.6667 44.6335 20.8333 46.0335C22 47.4335 23.7 48.1668 25.9 48.1668C26.9 48.1668 27.8 47.9668 28.6 47.6335C29.4333 47.2335 30.1 46.7335 30.5333 46.0668V42.9668H24.8333V38.3001H35.6333V52.4001H31.4L30.7333 50.0335C29.3 51.9335 27.2 52.9001 24.4333 52.9001ZM45.5667 52.4001H40.3333V27.6001H45.5667V52.4001ZM50.6 52.4001H55.8333V42.9668H65.0333V38.2335H55.8333V32.3335H67.1667V27.6001H50.6V52.4001Z" fill="#ABABAB"/>
</svg>
