<svg width="80" height="80" viewBox="0 0 80 80" fill="none" xmlns="http://www.w3.org/2000/svg">
<path d="M64.5999 37.9333C66.4749 39.806 69.0166 40.8579 71.6666 40.8579C74.3166 40.8579 76.8583 39.806 78.7333 37.9333L78.8333 37.8333C79.1386 37.5218 79.3097 37.1029 79.3097 36.6667C79.3097 36.2304 79.1386 35.8116 78.8333 35.5L44.4999 1.16668C44.1884 0.861297 43.7695 0.690247 43.3333 0.690247C42.897 0.690247 42.4781 0.861297 42.1666 1.16668L42.0666 1.26668C40.1939 3.14168 39.1421 5.68333 39.1421 8.33334C39.1421 10.9834 40.1939 13.525 42.0666 15.4L43.3333 16.6667L33.5999 26.4L21.4333 25.2667C20.4568 25.1769 19.4726 25.3036 18.5507 25.6377C17.6288 25.9719 16.792 26.5054 16.0999 27.2L14.0333 29.3C13.7208 29.6099 13.4729 29.9786 13.3036 30.3848C13.1344 30.7909 13.0473 31.2266 13.0473 31.6667C13.0473 32.1067 13.1344 32.5424 13.3036 32.9486C13.4729 33.3548 13.7208 33.7235 14.0333 34.0333L45.9666 65.9667C46.2765 66.2791 46.6451 66.5271 47.0513 66.6963C47.4575 66.8655 47.8932 66.9527 48.3333 66.9527C48.7733 66.9527 49.209 66.8655 49.6152 66.6963C50.0214 66.5271 50.39 66.2791 50.6999 65.9667L52.7999 63.8667C53.4946 63.1746 54.028 62.3378 54.3622 61.4159C54.6964 60.494 54.8231 59.5098 54.7333 58.5333L53.5999 46.4L63.3333 36.6667L64.5999 37.9333ZM30.2333 56.9C30.4073 57.0752 30.5401 57.287 30.6223 57.5198C30.7044 57.7527 30.7338 58.0009 30.7083 58.2466C30.6828 58.4922 30.603 58.729 30.4747 58.9401C30.3465 59.1511 30.1729 59.331 29.9666 59.4667L12.7999 70.9C12.4805 71.114 12.097 71.211 11.7143 71.1745C11.3315 71.1381 10.9732 70.9704 10.6999 70.7L9.29993 69.3C9.0295 69.0267 8.86186 68.6684 8.82541 68.2857C8.78896 67.903 8.88595 67.5194 9.09993 67.2L20.5333 50C20.669 49.7937 20.8489 49.6201 21.0599 49.4919C21.2709 49.3636 21.5078 49.2838 21.7534 49.2583C21.999 49.2328 22.2472 49.2622 22.4801 49.3443C22.713 49.4265 22.9247 49.5593 23.0999 49.7333L30.2333 56.8667V56.9Z" fill="#ABABAB"/>
</svg>
