<svg width="81" height="80" viewBox="0 0 81 80" fill="none" xmlns="http://www.w3.org/2000/svg">
<path fill-rule="evenodd" clip-rule="evenodd" d="M20.5 6.66681H60.5C64.0362 6.66681 67.4276 8.07157 69.9281 10.5721C72.4286 13.0725 73.8334 16.4639 73.8334 20.0001V45.0001C73.8334 45.4422 73.6578 45.8661 73.3452 46.1787C73.0326 46.4912 72.6087 46.6668 72.1667 46.6668H63.8334C59.4131 46.6668 55.1738 48.4228 52.0482 51.5484C48.9226 54.674 47.1667 58.9132 47.1667 63.3335V71.6668C47.1667 72.1088 46.9911 72.5328 46.6785 72.8453C46.366 73.1579 45.942 73.3335 45.5 73.3335H20.5C16.9638 73.3335 13.5724 71.9287 11.0719 69.4282C8.57145 66.9277 7.16669 63.5364 7.16669 60.0001V20.0001C7.16669 16.4639 8.57145 13.0725 11.0719 10.5721C13.5724 8.07157 16.9638 6.66681 20.5 6.66681ZM22.1667 33.3335C23.4928 33.3335 24.7645 32.8067 25.7022 31.869C26.6399 30.9313 27.1667 29.6596 27.1667 28.3335C27.1667 27.0074 26.6399 25.7356 25.7022 24.7979C24.7645 23.8603 23.4928 23.3335 22.1667 23.3335C20.8406 23.3335 19.5688 23.8603 18.6312 24.7979C17.6935 25.7356 17.1667 27.0074 17.1667 28.3335C17.1667 29.6596 17.6935 30.9313 18.6312 31.869C19.5688 32.8067 20.8406 33.3335 22.1667 33.3335ZM63.8334 28.3335C63.8334 29.6596 63.3066 30.9313 62.3689 31.869C61.4312 32.8067 60.1594 33.3335 58.8334 33.3335C57.5073 33.3335 56.2355 32.8067 55.2978 31.869C54.3601 30.9313 53.8334 29.6596 53.8334 28.3335C53.8334 27.0074 54.3601 25.7356 55.2978 24.7979C56.2355 23.8603 57.5073 23.3335 58.8334 23.3335C60.1594 23.3335 61.4312 23.8603 62.3689 24.7979C63.3066 25.7356 63.8334 27.0074 63.8334 28.3335ZM30.8 38.1335C30.3049 37.3997 29.5387 36.8927 28.6698 36.7239C27.8008 36.5551 26.9005 36.7384 26.1667 37.2335C25.4329 37.7285 24.9259 38.4948 24.7571 39.3637C24.5883 40.2327 24.7716 41.133 25.2667 41.8668C26.9425 44.3693 29.209 46.4205 31.8659 47.8389C34.5228 49.2573 37.4882 49.9993 40.5 49.9993C43.5118 49.9993 46.4772 49.2573 49.1341 47.8389C51.791 46.4205 54.0576 44.3693 55.7334 41.8668C55.9785 41.5035 56.1497 41.0954 56.2371 40.666C56.3245 40.2365 56.3265 39.794 56.2429 39.3637C56.1594 38.9335 55.9919 38.5239 55.75 38.1584C55.5082 37.7929 55.1967 37.4786 54.8334 37.2335C54.47 36.9883 54.062 36.8172 53.6325 36.7297C53.203 36.6423 52.7605 36.6403 52.3303 36.7239C51.9 36.8075 51.4905 36.9749 51.125 37.2168C50.7594 37.4587 50.4452 37.7701 50.2 38.1335C49.1341 39.7285 47.6912 41.0361 45.9993 41.9404C44.3073 42.8447 42.4185 43.3178 40.5 43.3178C38.5816 43.3178 36.6927 42.8447 35.0008 41.9404C33.3088 41.0361 31.866 39.7285 30.8 38.1335Z" fill="#ABABAB"/>
<path d="M72.7 53.3335C72.8 53.3335 72.8667 53.4335 72.8334 53.5335C72.3471 54.5468 71.6935 55.4708 70.9 56.2668L56.7667 70.4002C55.9707 71.1936 55.0466 71.8472 54.0334 72.3335C54.0117 72.3463 53.987 72.3527 53.9618 72.3521C53.9367 72.3514 53.9123 72.3437 53.8914 72.3297C53.8705 72.3158 53.854 72.2962 53.8437 72.2733C53.8334 72.2504 53.8298 72.225 53.8334 72.2002V63.3335C53.8334 60.6813 54.8869 58.1378 56.7623 56.2624C58.6376 54.3871 61.1812 53.3335 63.8334 53.3335H72.7Z" fill="#ABABAB"/>
</svg>
