<svg width="68" height="68" viewBox="0 0 68 68" fill="none" xmlns="http://www.w3.org/2000/svg">
<path d="M0.666656 18.6668C0.666656 13.8929 2.56308 9.31457 5.93873 5.93892C9.31439 2.56326 13.8928 0.66684 18.6667 0.66684C19.8667 0.66684 21 1.40017 21.4333 2.50017L27.8667 17.9668C28.1756 18.7168 28.2005 19.5538 27.9366 20.3208C27.6728 21.0878 27.1383 21.7323 26.4333 22.1335L17.3333 27.3335C18.3079 33.1685 21.0803 38.5536 25.2635 42.7367C29.4466 46.9198 34.8316 49.6923 40.6667 50.6668L44.4 43.2002C44.7522 42.4925 45.3445 41.933 46.0711 41.6216C46.7977 41.3102 47.6113 41.2672 48.3667 41.5002L65.2333 46.7002C66.5 47.0668 67.3333 48.2335 67.3333 49.5335C67.3333 59.3335 59.3333 67.3335 49.5333 67.3335H48.3C21.9667 67.3335 0.666656 46.0002 0.666656 19.7002V18.6668ZM37.3333 4.00017C37.3333 3.11612 37.6845 2.26827 38.3096 1.64315C38.9348 1.01803 39.7826 0.66684 40.6667 0.66684C47.7391 0.66684 54.5219 3.47636 59.5228 8.47733C64.5238 13.4783 67.3333 20.2611 67.3333 27.3335C67.3333 28.2176 66.9821 29.0654 66.357 29.6905C65.7319 30.3156 64.884 30.6668 64 30.6668C63.1159 30.6668 62.2681 30.3156 61.643 29.6905C61.0178 29.0654 60.6667 28.2176 60.6667 27.3335C60.6667 22.0292 58.5595 16.9421 54.8088 13.1914C51.0581 9.44064 45.971 7.33351 40.6667 7.33351C39.7826 7.33351 38.9348 6.98232 38.3096 6.3572C37.6845 5.73207 37.3333 4.88423 37.3333 4.00017Z" fill="#ABABAB"/>
</svg>
