<svg width="80" height="80" viewBox="0 0 80 80" fill="none" xmlns="http://www.w3.org/2000/svg">
<path d="M13.3333 13.3335C10.6811 13.3335 8.13761 14.3871 6.26225 16.2624C4.38688 18.1378 3.33331 20.6813 3.33331 23.3335V56.6668C3.33331 59.319 4.38688 61.8625 6.26225 63.7379C8.13761 65.6133 10.6811 66.6668 13.3333 66.6668H50C52.6521 66.6668 55.1957 65.6133 57.0711 63.7379C58.9464 61.8625 60 59.319 60 56.6668V49.6002C59.9957 50.2214 60.165 50.8314 60.489 51.3615C60.8129 51.8916 61.2785 52.3206 61.8333 52.6002L71.8333 57.6002C72.3433 57.8572 72.9107 57.9788 73.4812 57.9535C74.0517 57.9282 74.6061 57.7567 75.0913 57.4556C75.5765 57.1544 75.9761 56.7337 76.252 56.2337C76.5279 55.7337 76.6706 55.1712 76.6666 54.6002V25.4002C76.6706 24.8291 76.5279 24.2666 76.252 23.7666C75.9761 23.2666 75.5765 22.8459 75.0913 22.5448C74.6061 22.2436 74.0517 22.0721 73.4812 22.0468C72.9107 22.0215 72.3433 22.1432 71.8333 22.4002L61.8333 27.4002C61.2785 27.6797 60.8129 28.1087 60.489 28.6388C60.165 29.1689 59.9957 29.7789 60 30.4002V23.3335C60 20.6813 58.9464 18.1378 57.0711 16.2624C55.1957 14.3871 52.6521 13.3335 50 13.3335H13.3333Z" fill="#ABABAB"/>
</svg>
